####
#
# OBJ File Generated by Meshlab
#
####
# Object art4_3d_convexhull.obj
#
# Vertices: 77
# Faces: 150
#
####
vn -0.1297954 -0.1842277 0.9742758
v -0.0067131 -0.0158060 0.1570507
vn 0.8302873 0.0168520 -0.5570807
v 0.0550025 0.0022803 0.0000000
vn 0.4575319 -0.6413599 -0.6158913
v 0.0250000 -0.0659640 0.0045000
vn -0.3920095 0.7494007 -0.5335983
v -0.0250000 0.0659640 0.0045000
vn -0.8624883 0.1597284 0.4802093
v -0.0461696 0.0157566 0.1311114
vn 0.4686930 0.6451248 -0.6034409
v 0.0250000 0.0659640 0.0045000
vn -0.4249643 -0.8027889 -0.4182529
v -0.0250000 -0.0659640 0.0045000
vn 0.9936177 -0.1017665 0.0486571
v 0.0546694 -0.0076130 0.0928490
vn -0.8242803 0.1043581 -0.5564814
v -0.0548989 0.0054147 0.0000060
vn -0.8871953 -0.3348491 -0.3174281
v -0.0511267 -0.0204060 -0.0000013
vn 0.4214906 -0.8967620 0.1347724
v 0.0250003 -0.0659638 0.0545028
vn 0.9600039 -0.1312010 0.2473436
v 0.0511683 -0.0166777 0.1177805
vn 0.6516033 -0.1909409 0.7341354
v 0.0369807 -0.0161900 0.1425637
vn -0.8869760 0.4609863 0.0276626
v -0.0495303 0.0242665 0.1083844
vn -0.5530593 0.3041177 -0.7756532
v -0.0491391 0.0249113 -0.0000225
vn 0.0908875 -0.1340442 -0.9867987
v 0.0290451 -0.0471710 0.0000004
vn -0.5950111 -0.6782430 0.4312171
v -0.0318588 -0.0405258 0.1258861
vn 0.8067857 -0.1955436 -0.5575479
v 0.0539685 -0.0113256 -0.0000000
vn 0.8848485 0.1646677 0.4358069
v 0.0472558 0.0153062 0.1281192
vn -0.7873968 0.2662147 -0.5560001
v -0.0526272 0.0161243 -0.0000000
vn -0.0852364 0.1389698 -0.9866216
v -0.0253401 0.0502952 0.0000016
vn -0.9706383 0.2027505 0.1294359
v -0.0523970 0.0173935 0.1122947
vn 0.7615070 -0.5999662 0.2452502
v 0.0418472 -0.0344009 0.1151638
vn 0.3657618 -0.8450943 0.3899153
v 0.0225334 -0.0462227 0.1254512
vn 0.0026682 0.1846995 -0.9827915
v 0.0007952 0.0549494 0.0000000
vn 0.9475937 0.2616093 0.1833760
v 0.0519115 0.0182026 0.1149583
vn 0.8586141 0.2458296 -0.4498330
v 0.0534915 0.0131710 -0.0000002
vn 0.5710905 0.3089752 -0.7605196
v 0.0489697 0.0251985 -0.0000013
vn 0.4180287 -0.6208727 0.6631508
v 0.0239382 -0.0359851 0.1402355
vn 0.6754085 0.5433154 0.4986299
v 0.0378318 0.0309111 0.1312431
vn 0.7717276 0.5996202 0.2118779
v 0.0425195 0.0336140 0.1162011
vn -0.9993732 0.0199566 0.0292406
v -0.0551055 0.0027326 0.0880080
vn -0.6884554 -0.1537615 -0.7087923
v -0.0537925 -0.0117072 -0.0000002
vn -0.6525928 0.7184535 0.2407222
v -0.0344860 0.0436494 0.1075226
vn 0.5621725 -0.2987463 -0.7711762
v 0.0491403 -0.0249085 -0.0000090
vn -0.9187263 -0.3937339 0.0302604
v -0.0504188 -0.0220943 0.1044570
vn -0.5930092 0.2332007 0.7706864
v -0.0313722 0.0164567 0.1471660
vn 0.0200805 -0.9124452 0.4087061
v 0.0012958 -0.0515188 0.1269772
vn 0.1090963 0.1452377 -0.9833636
v 0.0295339 0.0479488 0.0000007
vn -0.1781447 0.8758808 0.4484386
v -0.0060541 0.0506908 0.1272363
vn 0.9949456 0.0967881 0.0267445
v 0.0546933 0.0068235 0.0901153
vn 0.8817083 0.4708737 0.0294707
v 0.0491662 0.0248900 0.1061360
vn 0.4729250 0.2028240 0.8574407
v 0.0244115 0.0163765 0.1518165
vn 0.7505426 0.1750085 0.6372268
v 0.0404194 0.0161934 0.1386446
vn 0.8174759 -0.3226145 0.4771300
v 0.0457086 -0.0184772 0.1309038
vn 0.4216041 0.8017889 0.4235383
v 0.0227974 0.0453463 0.1278004
vn 0.4264608 0.8947124 0.1327439
v 0.0250003 0.0659638 0.0545029
vn -0.4618182 0.8737455 0.1526195
v -0.0250002 0.0659638 0.0545024
vn -0.1739137 -0.1007694 -0.9795915
v -0.0477898 -0.0272088 -0.0000006
vn -0.9316866 -0.2689265 0.2442103
v -0.0512702 -0.0172120 0.1175981
vn -0.0372250 -0.2131510 -0.9763099
v -0.0152229 -0.0549300 0.0000043
vn -0.2506868 -0.9250436 0.2853954
v -0.0141363 -0.0530282 0.1125193
vn -0.4350822 -0.8836313 0.1729139
v -0.0250004 -0.0659637 0.0545031
vn 0.0830813 0.8990333 0.4299262
v 0.0037746 0.0518301 0.1255385
vn 0.6010943 0.7434800 0.2931264
v 0.0310920 0.0428339 0.1198409
vn -0.8289711 -0.0657054 -0.5554184
v -0.0548020 -0.0046640 0.0000000
vn -0.8098050 0.5410680 0.2268509
v -0.0459358 0.0291794 0.1163229
vn -0.9849681 -0.1672504 0.0431877
v -0.0537678 -0.0123162 0.0995870
vn -0.7695546 -0.5947497 0.2325050
v -0.0410088 -0.0345692 0.1182279
vn 0.6206334 -0.6891141 0.3740802
v 0.0330075 -0.0397800 0.1258493
vn -0.8586199 -0.5073230 0.0734538
v -0.0463696 -0.0296473 0.1088340
vn 0.4334249 -0.2349407 0.8700264
v 0.0218022 -0.0159282 0.1527831
vn -0.4782559 0.8039687 0.3534198
v -0.0256785 0.0455173 0.1225653
vn 0.8969790 -0.4307104 0.0995853
v 0.0494541 -0.0243974 0.1130283
vn -0.4101875 -0.2339773 0.8814765
v -0.0231922 -0.0163889 0.1521751
vn -0.7157942 -0.2769527 0.6410428
v -0.0402046 -0.0169360 0.1393491
vn -0.8155229 -0.3855597 0.4315856
v -0.0430470 -0.0267176 0.1270805
vn -0.3315642 -0.8293239 0.4497634
v -0.0208603 -0.0448453 0.1297354
vn 0.2833422 0.6348346 0.7188200
v 0.0153324 0.0338083 0.1466801
vn -0.0804058 0.6568385 0.7497320
v -0.0074520 0.0352294 0.1469422
vn -0.4434496 -0.5800475 0.6832988
v -0.0238462 -0.0318797 0.1433110
vn 0.1896069 -0.2537618 0.9485010
v 0.0083491 -0.0187059 0.1567058
vn 0.0832746 0.2526225 0.9639747
v 0.0064974 0.0190918 0.1570550
vn -0.2775632 0.2431476 0.9294288
v -0.0141132 0.0163588 0.1557503
vn -0.3902016 0.6414395 0.6605286
v -0.0212639 0.0364414 0.1413032
vn -0.6566598 0.5919316 0.4673488
v -0.0359580 0.0322763 0.1318712
vn -0.0870439 -0.6252882 0.7755244
v -0.0019482 -0.0359366 0.1477724
# 77 vertices, 0 vertices normals

f 14//14 48//48 4//4
f 47//47 6//6 4//4
f 47//47 4//4 48//48
f 15//15 14//14 4//4
f 64//64 3//3 35//35
f 11//11 7//7 3//3
f 11//11 53//53 7//7
f 11//11 3//3 64//64
f 54//54 47//47 48//48
f 21//21 15//15 4//4
f 16//16 35//35 3//3
f 51//51 16//16 3//3
f 61//61 7//7 53//53
f 38//38 53//53 11//11
f 27//27 41//41 2//2
f 42//42 6//6 47//47
f 42//42 47//47 31//31
f 22//22 20//20 9//9
f 20//20 14//14 15//15
f 21//21 4//4 25//25
f 22//22 14//14 20//20
f 49//49 7//7 61//61
f 25//25 4//4 6//6
f 39//39 25//25 6//6
f 41//41 26//26 8//8
f 26//26 12//12 8//8
f 2//2 8//8 18//18
f 2//2 41//41 8//8
f 27//27 28//28 42//42
f 26//26 27//27 42//42
f 39//39 6//6 28//28
f 28//28 6//6 42//42
f 57//57 14//14 22//22
f 54//54 48//48 40//40
f 34//34 48//48 57//57
f 57//57 48//48 14//14
f 35//35 18//18 64//64
f 36//36 49//49 61//61
f 36//36 10//10 49//49
f 38//38 52//52 53//53
f 61//61 53//53 59//59
f 42//42 31//31 26//26
f 8//8 64//64 18//18
f 27//27 26//26 41//41
f 44//44 45//45 19//19
f 44//44 13//13 45//45
f 12//12 26//26 19//19
f 46//46 55//55 47//47
f 55//55 31//31 47//47
f 32//32 22//22 9//9
f 48//48 63//63 40//40
f 63//63 48//48 34//34
f 64//64 8//8 12//12
f 58//58 50//50 22//22
f 51//51 3//3 7//7
f 64//64 23//23 11//11
f 24//24 11//11 60//60
f 54//54 46//46 47//47
f 43//43 44//44 30//30
f 43//43 13//13 44//44
f 31//31 30//30 26//26
f 19//19 30//30 44//44
f 19//19 26//26 30//30
f 10//10 58//58 33//33
f 10//10 36//36 58//58
f 56//56 32//32 9//9
f 76//76 63//63 34//34
f 76//76 34//34 57//57
f 51//51 7//7 49//49
f 49//49 10//10 33//33
f 49//49 33//33 56//56
f 49//49 56//56 9//9
f 49//49 9//9 20//20
f 49//49 20//20 15//15
f 49//49 15//15 21//21
f 49//49 21//21 25//25
f 49//49 25//25 39//39
f 49//49 39//39 28//28
f 49//49 28//28 27//27
f 49//49 27//27 2//2
f 49//49 2//2 18//18
f 49//49 18//18 35//35
f 49//49 35//35 16//16
f 49//49 16//16 51//51
f 22//22 5//5 57//57
f 22//22 50//50 5//5
f 32//32 58//58 22//22
f 58//58 36//36 50//50
f 50//50 36//36 61//61
f 66//66 37//37 5//5
f 67//67 5//5 50//50
f 59//59 50//50 61//61
f 24//24 38//38 11//11
f 68//68 53//53 52//52
f 68//68 38//38 77//77
f 60//60 11//11 23//23
f 29//29 13//13 62//62
f 62//62 13//13 43//43
f 69//69 43//43 30//30
f 30//30 31//31 55//55
f 54//54 40//40 70//70
f 54//54 70//70 69//69
f 58//58 56//56 33//33
f 58//58 32//32 56//56
f 66//66 5//5 67//67
f 59//59 67//67 50//50
f 17//17 59//59 53//53
f 68//68 52//52 38//38
f 68//68 17//17 53//53
f 45//45 64//64 12//12
f 45//45 12//12 19//19
f 46//46 54//54 69//69
f 75//75 70//70 40//40
f 29//29 45//45 13//13
f 29//29 60//60 45//45
f 72//72 62//62 43//43
f 72//72 29//29 62//62
f 70//70 74//74 73//73
f 74//74 1//1 73//73
f 74//74 65//65 1//1
f 73//73 1//1 72//72
f 5//5 37//37 76//76
f 37//37 65//65 74//74
f 59//59 17//17 67//67
f 76//76 37//37 75//75
f 70//70 75//75 74//74
f 71//71 66//66 17//17
f 71//71 68//68 77//77
f 17//17 66//66 67//67
f 24//24 29//29 38//38
f 23//23 64//64 45//45
f 24//24 60//60 29//29
f 29//29 72//72 77//77
f 69//69 70//70 73//73
f 46//46 30//30 55//55
f 30//30 46//46 69//69
f 77//77 72//72 1//1
f 77//77 1//1 65//65
f 73//73 43//43 69//69
f 75//75 40//40 63//63
f 76//76 75//75 63//63
f 37//37 66//66 65//65
f 66//66 71//71 65//65
f 75//75 37//37 74//74
f 71//71 17//17 68//68
f 29//29 77//77 38//38
f 73//73 72//72 43//43
f 65//65 71//71 77//77
f 5//5 76//76 57//57
f 45//45 60//60 23//23
# 150 faces, 0 coords texture

# End of File
