####
#
# OBJ File Generated by Meshlab
#
####
# Object art5_3d_convexhull.obj
#
# Vertices: 22
# Faces: 40
#
####
vn -0.2494027 0.3500801 0.9029077
v -0.0161013 0.0129994 0.0485400
vn -0.6089280 0.5432307 0.5780200
v -0.0359346 0.0150555 0.0308324
vn -0.6341134 0.7288040 -0.2583504
v -0.0445947 0.0154998 -0.0160720
vn -0.9123232 -0.3056144 -0.2725181
v -0.0485497 -0.0155005 -0.0077313
vn -0.8027097 0.5629891 0.1967243
v -0.0469955 0.0155021 0.0089241
vn 0.7192914 0.5660730 0.4027173
v 0.0391367 0.0155000 0.0263052
vn 0.1566706 0.4764798 -0.8651135
v 0.0089166 0.0155000 -0.0465480
vn 0.5806467 0.4358662 0.6876555
v 0.0305628 0.0158344 0.0357266
vn 0.3396550 -0.3041162 0.8900269
v 0.0118805 -0.0098177 0.0499788
vn -0.3892716 -0.8650365 0.3165114
v -0.0345722 -0.0154958 0.0348018
vn 0.1169038 -0.7197263 -0.6843446
v 0.0074788 -0.0155000 -0.0464989
vn -0.4922892 0.5619399 -0.6647367
v -0.0230699 0.0155004 -0.0428488
vn 0.8712726 -0.4896707 0.0332688
v 0.0485846 -0.0154995 0.0035313
vn 0.6755481 0.7367831 0.0280247
v 0.0476257 0.0155031 0.0050598
vn 0.6765734 0.5842645 -0.4482003
v 0.0363179 0.0155012 -0.0317923
vn -0.3648557 -0.0268159 0.9306779
v -0.0150935 -0.0005334 0.0502372
vn 0.0218149 0.9775754 0.2094529
v 0.0063316 0.0154997 0.0493644
vn 0.5935115 -0.5289531 0.6065912
v 0.0338160 -0.0155430 0.0328683
vn -0.0078585 -0.5078116 0.8614324
v -0.0008504 -0.0158401 0.0501802
vn -0.2750017 -0.5887343 -0.7601092
v -0.0181898 -0.0154995 -0.0449242
vn 0.5127578 -0.5853291 -0.6280679
v 0.0320492 -0.0155002 -0.0361186
vn 0.2579423 0.0513895 0.9647927
v 0.0149507 0.0024080 0.0500185
# 22 vertices, 0 vertices normals

f 2//2 16//16 1//1
f 16//16 2//2 10//10
f 12//12 4//4 3//3
f 22//22 9//9 18//18
f 7//7 20//20 12//12
f 7//7 11//11 20//20
f 21//21 11//11 7//7
f 21//21 7//7 15//15
f 15//15 14//14 13//13
f 10//10 2//2 5//5
f 5//5 4//4 10//10
f 3//3 4//4 5//5
f 6//6 8//8 18//18
f 18//18 13//13 6//6
f 18//18 9//9 19//19
f 19//19 16//16 10//10
f 20//20 4//4 12//12
f 13//13 14//14 6//6
f 21//21 15//15 13//13
f 22//22 8//8 17//17
f 10//10 18//18 19//19
f 10//10 13//13 18//18
f 10//10 4//4 20//20
f 10//10 21//21 13//13
f 10//10 20//20 11//11
f 10//10 11//11 21//21
f 22//22 18//18 8//8
f 22//22 17//17 1//1
f 22//22 1//1 16//16
f 22//22 16//16 19//19
f 22//22 19//19 9//9
f 17//17 8//8 6//6
f 17//17 6//6 14//14
f 17//17 14//14 15//15
f 17//17 15//15 7//7
f 17//17 7//7 12//12
f 17//17 12//12 3//3
f 17//17 3//3 5//5
f 17//17 5//5 2//2
f 17//17 2//2 1//1
# 40 faces, 0 coords texture

# End of File
