####
#
# OBJ File Generated by Meshlab
#
####
# Object art6_3d_convexhull.obj
#
# Vertices: 37
# Faces: 70
#
####
vn -0.3656804 -0.8948730 0.2558909
v -0.0064300 -0.0135520 0.0135000
vn 0.2343061 0.6010384 0.7641031
v 0.0053190 0.0140250 0.0135000
vn 0.2125831 -0.7966665 -0.5658011
v 0.0041595 -0.0143610 0.0000000
vn 0.9108866 -0.3895962 0.1360167
v 0.0138000 -0.0058790 0.0135000
vn -0.6740915 -0.2932369 0.6779476
v -0.0130592 -0.0078444 0.0139996
vn -0.6418458 -0.5092095 -0.5733582
v -0.0122544 -0.0092089 -0.0000000
vn 0.8149475 -0.3601242 -0.4540608
v 0.0138000 -0.0058790 0.0000000
vn -0.8145100 -0.0738665 0.5754279
v -0.0149030 -0.0012030 0.0135000
vn -0.7002262 0.3021503 0.6468295
v -0.0135501 0.0067178 0.0140004
vn 0.3435989 0.9034545 -0.2563393
v 0.0045727 0.0145326 -0.0000000
vn -0.9215523 0.0111378 -0.3880945
v -0.0152103 0.0008753 -0.0000000
vn -0.9219725 0.1240300 0.3668561
v -0.0148060 0.0024060 0.0135000
vn -0.6262656 0.3118155 -0.7145365
v -0.0132820 0.0069710 -0.0000000
vn -0.1658129 -0.8523968 0.4959090
v -0.0029905 -0.0146495 0.0135000
vn -0.3682278 -0.8085566 -0.4589603
v -0.0064300 -0.0135520 -0.0000000
vn 0.5717567 -0.6843714 -0.4524712
v 0.0102997 -0.0112266 -0.0000000
vn 0.3497587 0.1412503 0.9261303
v 0.0141106 0.0052223 0.0140004
vn 0.6996689 -0.1027394 -0.7070417
v 0.0149045 -0.0020457 0.0000065
vn 0.0855014 0.9199299 0.3826467
v 0.0018020 0.0148425 0.0135000
vn -0.6071095 0.5622178 -0.5615419
v -0.0111915 0.0099145 -0.0000000
vn 0.5887558 -0.7513031 0.2981781
v 0.0089287 -0.0118865 0.0135000
vn 0.6643175 -0.4697749 0.5813725
v 0.0125651 -0.0081969 0.0140006
vn -0.0527887 -0.8238367 -0.5643637
v -0.0011933 -0.0148188 0.0000000
vn 0.8355343 0.0712477 -0.5447993
v 0.0149598 0.0012089 0.0000195
vn 0.9400348 -0.1804261 0.2894496
v 0.0146088 -0.0034117 0.0140333
vn 0.6264316 0.7208790 0.2965077
v 0.0105279 0.0109589 0.0135551
vn 0.6529790 0.2500334 -0.7149138
v 0.0141820 0.0047345 0.0000000
vn 0.6424722 0.5086403 -0.5731618
v 0.0115178 0.0094000 0.0000000
vn 0.0000716 -0.0005526 0.9999999
v -0.0068780 0.0127090 0.0140000
vn -0.1298602 0.6455135 0.7526278
v -0.0040229 0.0144521 0.0140013
vn -0.4245290 0.8416660 -0.3337269
v -0.0069112 0.0131625 -0.0000000
vn -0.3814285 -0.6220612 0.6837779
v -0.0084961 -0.0123613 0.0139999
vn 0.0701745 -0.9669107 0.2452737
v 0.0018020 -0.0148425 0.0135000
vn 0.2434823 -0.6350198 0.7331209
v 0.0052648 -0.0140454 0.0140000
vn -0.4240772 0.5600913 0.7116574
v -0.0088644 0.0122530 0.0140001
vn -0.0610904 0.9679034 0.2437846
v -0.0018080 0.0148910 0.0135000
vn -0.0304358 0.2692363 -0.9625931
v -0.0018080 0.0148910 -0.0000000
# 37 vertices, 0 vertices normals

f 30//30 17//17 2//2
f 5//5 11//11 6//6
f 5//5 8//8 11//11
f 14//14 32//32 1//1
f 15//15 14//14 1//1
f 15//15 23//23 14//14
f 25//25 22//22 4//4
f 25//25 4//4 7//7
f 25//25 7//7 18//18
f 8//8 9//9 12//12
f 9//9 8//8 5//5
f 20//20 13//13 9//9
f 20//20 9//9 35//35
f 32//32 15//15 1//1
f 32//32 6//6 15//15
f 22//22 16//16 7//7
f 22//22 7//7 4//4
f 22//22 21//21 16//16
f 23//23 33//33 14//14
f 24//24 25//25 18//18
f 24//24 17//17 25//25
f 26//26 2//2 17//17
f 19//19 30//30 2//2
f 9//9 11//11 12//12
f 9//9 13//13 11//11
f 31//31 20//20 35//35
f 11//11 8//8 12//12
f 6//6 32//32 5//5
f 33//33 23//23 3//3
f 34//34 14//14 33//33
f 34//34 32//32 14//14
f 27//27 17//17 24//24
f 10//10 2//2 26//26
f 10//10 26//26 28//28
f 10//10 19//19 2//2
f 35//35 29//29 30//30
f 36//36 30//30 19//19
f 34//34 21//21 22//22
f 34//34 33//33 3//3
f 34//34 3//3 16//16
f 34//34 16//16 21//21
f 17//17 22//22 25//25
f 17//17 30//30 29//29
f 17//17 34//34 22//22
f 17//17 29//29 35//35
f 17//17 35//35 9//9
f 17//17 9//9 5//5
f 17//17 5//5 32//32
f 17//17 32//32 34//34
f 28//28 17//17 27//27
f 28//28 26//26 17//17
f 31//31 35//35 30//30
f 37//37 36//36 19//19
f 37//37 19//19 10//10
f 37//37 31//31 30//30
f 37//37 30//30 36//36
f 37//37 10//10 28//28
f 37//37 28//28 27//27
f 37//37 27//27 24//24
f 37//37 24//24 18//18
f 37//37 18//18 7//7
f 37//37 7//7 16//16
f 37//37 16//16 3//3
f 37//37 3//3 23//23
f 37//37 23//23 15//15
f 37//37 15//15 6//6
f 37//37 6//6 11//11
f 37//37 11//11 13//13
f 37//37 13//13 20//20
f 37//37 20//20 31//31
# 70 faces, 0 coords texture

# End of File
